<?xml version="1.0" encoding="iso-8859-1"?>
<!-- Generator: Adobe Illustrator 19.0.0, SVG Export Plug-In . SVG Version: 6.00 Build 0)  -->
<svg version="1.1" id="Capa_1" xmlns="http://www.w3.org/2000/svg" xmlns:xlink="http://www.w3.org/1999/xlink" x="0px" y="0px"
	 viewBox="0 0 480 480" style="enable-background:new 0 0 480 480;" xml:space="preserve">
<g>
	<g>
		<rect x="232" y="224" width="16" height="16"/>
	</g>
</g>
<g>
	<g>
		<rect x="216" y="256" width="48" height="16"/>
	</g>
</g>
<g>
	<g>
		<path d="M408.418,399.983c-3.025-0.014-6.044,0.26-9.018,0.817c-3.918-26.178-28.316-44.224-54.495-40.305
			c-20.833,3.118-37.187,19.473-40.305,40.305c-5.682-1.088-11.518-1.088-17.2,0c-3.918-26.178-28.316-44.224-54.495-40.305
			c-20.833,3.118-37.187,19.473-40.305,40.305c-5.682-1.088-11.518-1.088-17.2,0c-3.918-26.178-28.316-44.224-54.495-40.305
			c-20.833,3.118-37.187,19.473-40.305,40.305c-25.948-4.86-50.923,12.234-55.783,38.182c-0.557,2.973-0.83,5.993-0.817,9.018v24
			c0,4.418,3.582,8,8,8h80c4.418,0,8-3.582,8-8v-24c-0.016-2.682-0.257-5.358-0.72-8h17.44c-0.463,2.642-0.704,5.318-0.72,8v24
			c0,4.418,3.582,8,8,8h80c4.418,0,8-3.582,8-8v-24c-0.016-2.682-0.257-5.358-0.72-8h17.44c-0.463,2.642-0.704,5.318-0.72,8v24
			c0,4.418,3.582,8,8,8h80c4.418,0,8-3.582,8-8v-24c-0.016-2.682-0.257-5.358-0.72-8h17.44c-0.463,2.642-0.704,5.318-0.72,8v24
			c0,4.418,3.582,8,8,8h80c4.418,0,8-3.582,8-8v-24C456.12,421.601,434.817,400.103,408.418,399.983z M104,464H40v-16
			c0-17.673,14.327-32,32-32s32,14.327,32,32V464z M142.496,424h-28.992c-4.185-7.208-10.166-13.208-17.36-17.416
			c0.683-17.594,15.499-31.302,33.093-30.619c16.636,0.646,29.974,13.984,30.619,30.619
			C152.662,410.792,146.681,416.792,142.496,424z M216,464h-64v-16c0-17.673,14.327-32,32-32s32,14.327,32,32V464z M254.496,424
			h-28.992c-4.185-7.208-10.166-13.208-17.36-17.416c0.683-17.594,15.499-31.302,33.093-30.619
			c16.636,0.646,29.973,13.984,30.619,30.619C264.662,410.792,258.681,416.792,254.496,424z M328,464h-64v-16
			c0-17.673,14.327-32,32-32c17.673,0,32,14.327,32,32V464z M366.496,424h-28.992c-4.185-7.208-10.166-13.208-17.36-17.416
			c0.683-17.594,15.499-31.302,33.093-30.619c16.636,0.646,29.974,13.984,30.619,30.619
			C376.662,410.792,370.681,416.792,366.496,424z M440,464h-64v-16c0-17.673,14.327-32,32-32c17.673,0,32,14.327,32,32V464z"/>
	</g>
</g>
<g>
	<g>
		<path d="M472,0H8C3.582,0,0,3.582,0,8v32c0,4.418,3.582,8,8,8h16v216c0,4.418,3.582,8,8,8h146.984l3.688,24H176
			c-4.418,0-8,3.582-8,8v32c0,4.418,3.582,8,8,8h128c4.418,0,8-3.582,8-8v-32c0-4.418-3.582-8-8-8h-6.672l3.688-24H448
			c4.418,0,8-3.582,8-8V48h16c4.418,0,8-3.582,8-8V8C480,3.582,476.418,0,472,0z M296,328H184v-16h112V328z M185.328,208h109.344
			l-13.536,88h-82.272L185.328,208z M158.248,192l-4-16h171.504l-4,16H158.248z M440,256H303.48l7.384-48H328
			c3.672-0.001,6.871-2.501,7.76-6.064l8-32c1.069-4.287-1.539-8.629-5.826-9.698C337.301,160.08,336.652,160,336,160h-16v-24
			c0-2.122-0.844-4.156-2.344-5.656L301.6,114.28c1.566-3.202,2.386-6.716,2.4-10.28c0-13.255-10.745-24-24-24s-24,10.745-24,24
			s10.745,24,24,24c3.564-0.014,7.078-0.834,10.28-2.4L304,139.312V160H176v-20.688l13.72-13.712c3.202,1.566,6.716,2.386,10.28,2.4
			c13.255,0,24-10.745,24-24s-10.745-24-24-24s-24,10.745-24,24c0.014,3.564,0.834,7.078,2.4,10.28l-16.064,16.064
			c-1.497,1.501-2.338,3.536-2.336,5.656v24h-16c-4.418,0.001-7.999,3.584-7.998,8.002c0,0.652,0.08,1.301,0.238,1.934l8,32
			c0.889,3.563,4.088,6.063,7.76,6.064h17.136l7.384,48H40V48h400V256z M288,104c0,4.418-3.582,8-8,8s-8-3.582-8-8s3.582-8,8-8
			S288,99.582,288,104z M192,104c0-4.418,3.582-8,8-8s8,3.582,8,8s-3.582,8-8,8S192,108.418,192,104z M464,32H16V16h448V32z"/>
	</g>
</g>
<g>
</g>
<g>
</g>
<g>
</g>
<g>
</g>
<g>
</g>
<g>
</g>
<g>
</g>
<g>
</g>
<g>
</g>
<g>
</g>
<g>
</g>
<g>
</g>
<g>
</g>
<g>
</g>
<g>
</g>
</svg>
